<svg width="800" height="500" xmlns="http://www.w3.org/2000/svg">
  <!-- Title -->
  <text x="400" y="30" text-anchor="middle" font-size="20" font-weight="bold" fill="#007cba">Gazebo Physics Architecture</text>

  <!-- World Container -->
  <rect x="50" y="60" width="700" height="400" fill="none" stroke="#007cba" stroke-width="2" rx="10" ry="10"/>
  <text x="60" y="80" font-size="14" font-weight="bold" fill="#007cba">Gazebo Simulation Environment</text>

  <!-- Physics Engine -->
  <rect x="100" y="100" width="200" height="80" fill="#e3f2fd" stroke="#1976d2" stroke-width="2" rx="5" ry="5"/>
  <text x="200" y="130" text-anchor="middle" font-size="14" font-weight="bold" fill="#1976d2">Physics Engine</text>
  <text x="200" y="150" text-anchor="middle" font-size="12" fill="#333">ODE / Bullet / DART</text>

  <!-- Gravity Component -->
  <rect x="120" y="140" width="160" height="30" fill="#bbdefb" stroke="#1976d2" stroke-width="1" rx="3" ry="3"/>
  <text x="200" y="160" text-anchor="middle" font-size="11" fill="#333">Gravity: 0 0 -9.8 m/s²</text>

  <!-- Collision Detection -->
  <rect x="100" y="200" width="200" height="60" fill="#e3f2fd" stroke="#1976d2" stroke-width="2" rx="5" ry="5"/>
  <text x="200" y="225" text-anchor="middle" font-size="14" font-weight="bold" fill="#1976d2">Collision Detection</text>
  <text x="200" y="240" text-anchor="middle" font-size="11" fill="#333">GJK, EPA algorithms</text>

  <!-- Humanoid Robot -->
  <g transform="translate(450, 120)">
    <!-- Robot Body -->
    <rect x="-30" y="0" width="60" height="80" fill="#c8e6c9" stroke="#388e3c" stroke-width="2" rx="5" ry="5"/>
    <text x="0" y="30" text-anchor="middle" font-size="12" font-weight="bold" fill="#333">Humanoid</text>
    <text x="0" y="45" text-anchor="middle" font-size="10" fill="#333">Robot Model</text>

    <!-- Head -->
    <circle cx="0" cy="-20" r="15" fill="#c8e6c9" stroke="#388e3c" stroke-width="2"/>

    <!-- Arms -->
    <line x1="-30" y1="20" x2="-60" y2="20" stroke="#388e3c" stroke-width="4"/>
    <line x1="30" y1="20" x2="60" y2="20" stroke="#388e3c" stroke-width="4"/>

    <!-- Legs -->
    <line x1="-15" y1="80" x2="-25" y2="140" stroke="#388e3c" stroke-width="4"/>
    <line x1="15" y1="80" x2="25" y2="140" stroke="#388e3c" stroke-width="4"/>
  </g>

  <!-- Environment Objects -->
  <g transform="translate(500, 250)">
    <rect x="-40" y="0" width="80" height="20" fill="#ffccbc" stroke="#f57c00" stroke-width="2" rx="3" ry="3"/>
    <text x="0" y="15" text-anchor="middle" font-size="10" fill="#333">Ground Plane</text>
  </g>

  <g transform="translate(350, 220)">
    <circle cx="0" cy="0" r="25" fill="#ffccbc" stroke="#f57c00" stroke-width="2"/>
    <text x="0" y="5" text-anchor="middle" font-size="10" fill="#333">Obstacle</text>
  </g>

  <!-- Forces and Interactions -->
  <g transform="translate(450, 100)">
    <line x1="0" y1="0" x2="0" y2="30" stroke="red" stroke-width="2" marker-end="url(#arrowhead)"/>
    <text x="10" y="20" font-size="10" fill="red">Gravity</text>
  </g>

  <g transform="translate(480, 200)">
    <line x1="0" y1="0" x2="30" y2="0" stroke="purple" stroke-width="2" marker-end="url(#arrowhead)"/>
    <text x="15" y="-5" font-size="10" fill="purple">Collision</text>
  </g>

  <!-- Arrowhead Marker Definition -->
  <defs>
    <marker id="arrowhead" markerWidth="10" markerHeight="7"
            refX="9" refY="3.5" orient="auto">
      <polygon points="0 0, 10 3.5, 0 7" fill="currentColor"/>
    </marker>
  </defs>

  <!-- Physics Properties -->
  <g transform="translate(500, 320)">
    <rect x="0" y="0" width="240" height="100" fill="#f3e5f5" stroke="#7b1fa2" stroke-width="2" rx="5" ry="5"/>
    <text x="120" y="20" text-anchor="middle" font-size="12" font-weight="bold" fill="#7b1fa2">Physics Properties</text>
    <text x="10" y="40" font-size="10" fill="#333">• Mass & Inertia</text>
    <text x="10" y="55" font-size="10" fill="#333">• Joint Limits</text>
    <text x="10" y="70" font-size="10" fill="#333">• Friction Coefficients</text>
    <text x="10" y="85" font-size="10" fill="#333">• Contact Parameters</text>
  </g>

  <!-- Connection lines -->
  <line x1="300" y1="140" x2="420" y2="140" stroke="#666" stroke-width="1" stroke-dasharray="5,5"/>
  <line x1="300" y1="230" x2="420" y2="230" stroke="#666" stroke-width="1" stroke-dasharray="5,5"/>
</svg>