<svg width="800" height="500" xmlns="http://www.w3.org/2000/svg">
  <!-- Title -->
  <text x="400" y="30" text-anchor="middle" font-size="20" font-weight="bold" fill="#007cba">Isaac ROS VSLAM Architecture for Humanoid Robots</text>

  <!-- Isaac Sim Environment -->
  <g transform="translate(50, 80)">
    <rect x="0" y="0" width="200" height="120" fill="#e3f2fd" stroke="#1976d2" stroke-width="2" rx="5" ry="5"/>
    <text x="100" y="25" text-anchor="middle" font-size="12" font-weight="bold" fill="#1976d2">Isaac Sim</text>
    <text x="100" y="40" text-anchor="middle" font-size="11" fill="#333">Environment</text>

    <!-- Humanoid Robot with Camera -->
    <g transform="translate(100, 60)">
      <!-- Robot Body -->
      <rect x="-25" y="0" width="50" height="40" fill="#c8e6c9" stroke="#388e3c" stroke-width="2" rx="3" ry="3"/>
      <!-- Head with Camera -->
      <circle cx="0" cy="-15" r="10" fill="#c8e6c9" stroke="#388e3c" stroke-width="2"/>
      <!-- Camera icon -->
      <rect x="-5" y="-20" width="10" height="5" fill="#ffcc80" stroke="#ef6c00" stroke-width="1"/>
      <!-- Arms -->
      <line x1="-25" y1="15" x2="-40" y2="15" stroke="#388e3c" stroke-width="3"/>
      <line x1="25" y1="15" x2="40" y2="15" stroke="#388e3c" stroke-width="3"/>
    </g>
  </g>

  <!-- Camera Input -->
  <g transform="translate(300, 80)">
    <rect x="0" y="0" width="150" height="60" fill="#fff3e0" stroke="#f57c00" stroke-width="2" rx="5" ry="5"/>
    <text x="75" y="20" text-anchor="middle" font-size="12" font-weight="bold" fill="#f57c00">Camera Input</text>
    <text x="75" y="35" text-anchor="middle" font-size="10" fill="#333">RGB Frames</text>
    <text x="75" y="50" text-anchor="middle" font-size="9" fill="#333">30 FPS, 640x480</text>
  </g>

  <!-- Isaac ROS VSLAM Nodes -->
  <g transform="translate(500, 80)">
    <rect x="0" y="0" width="180" height="50" fill="#f3e5f5" stroke="#7b1fa2" stroke-width="2" rx="5" ry="5"/>
    <text x="90" y="20" text-anchor="middle" font-size="12" font-weight="bold" fill="#7b1fa2">Isaac ROS VSLAM</text>
    <text x="90" y="35" text-anchor="middle" font-size="10" fill="#333">Feature Detection & Tracking</text>
  </g>

  <!-- GPU Acceleration -->
  <g transform="translate(500, 160)">
    <rect x="0" y="0" width="180" height="50" fill="#f3e5f5" stroke="#7b1fa2" stroke-width="2" rx="5" ry="5"/>
    <text x="90" y="20" text-anchor="middle" font-size="12" font-weight="bold" fill="#7b1fa2">GPU Acceleration</text>
    <text x="90" y="35" text-anchor="middle" font-size="10" fill="#333">CUDA, TensorRT</text>
  </g>

  <!-- Pose Estimation -->
  <g transform="translate(500, 240)">
    <rect x="0" y="0" width="180" height="50" fill="#f3e5f5" stroke="#7b1fa2" stroke-width="2" rx="5" ry="5"/>
    <text x="90" y="20" text-anchor="middle" font-size="12" font-weight="bold" fill="#7b1fa2">Pose Estimation</text>
    <text x="90" y="35" text-anchor="middle" font-size="10" fill="#333">6DOF Pose Output</text>
  </g>

  <!-- Mapping -->
  <g transform="translate(500, 320)">
    <rect x="0" y="0" width="180" height="50" fill="#f3e5f5" stroke="#7b1fa2" stroke-width="2" rx="5" ry="5"/>
    <text x="90" y="20" text-anchor="middle" font-size="12" font-weight="bold" fill="#7b1fa2">Mapping</text>
    <text x="90" y="35" text-anchor="middle" font-size="10" fill="#333">Landmarks & Features</text>
  </g>

  <!-- Navigation Input -->
  <g transform="translate(50, 300)">
    <rect x="0" y="0" width="160" height="100" fill="#e8f5e8" stroke="#388e3c" stroke-width="2" rx="5" ry="5"/>
    <text x="80" y="20" text-anchor="middle" font-size="12" font-weight="bold" fill="#388e3c">Navigation Input</text>
    <text x="10" y="40" font-size="10" fill="#333">• Destination</text>
    <text x="10" y="55" font-size="10" fill="#333">• Waypoints</text>
    <text x="10" y="70" font-size="10" fill="#333">• Constraints</text>
    <text x="10" y="85" font-size="10" fill="#333">• Humanoid Params</text>
  </g>

  <!-- Humanoid Navigation Output -->
  <g transform="translate(300, 300)">
    <rect x="0" y="0" width="150" height="60" fill="#e8f5e8" stroke="#388e3c" stroke-width="2" rx="5" ry="5"/>
    <text x="75" y="20" text-anchor="middle" font-size="12" font-weight="bold" fill="#388e3c">Humanoid Nav</text>
    <text x="75" y="35" text-anchor="middle" font-size="10" fill="#333">Path Following</text>
    <text x="75" y="50" text-anchor="middle" font-size="9" fill="#333">Bipedal Locomotion</text>
  </g>

  <!-- Data Flow Arrows -->
  <line x1="250" y1="110" x2="300" y2="110" stroke="#666" stroke-width="2" marker-end="url(#arrowhead)"/>
  <line x1="450" y1="110" x2="500" y2="105" stroke="#666" stroke-width="2" marker-end="url(#arrowhead)"/>
  <line x1="450" y1="190" x2="500" y2="185" stroke="#666" stroke-width="2" marker-end="url(#arrowhead)"/>
  <line x1="450" y1="270" x2="500" y2="265" stroke="#666" stroke-width="2" marker-end="url(#arrowhead)"/>
  <line x1="450" y1="350" x2="500" y2="345" stroke="#666" stroke-width="2" marker-end="url(#arrowhead)"/>

  <line x1="680" y1="105" x2="680" y2="160" stroke="#666" stroke-width="2" marker-end="url(#arrowhead)"/>
  <line x1="680" y1="185" x2="680" y2="240" stroke="#666" stroke-width="2" marker-end="url(#arrowhead)"/>
  <line x1="680" y1="265" x2="680" y2="320" stroke="#666" stroke-width="2" marker-end="url(#arrowhead)"/>

  <line x1="210" y1="350" x2="300" y2="330" stroke="#666" stroke-width="2" marker-end="url(#arrowhead)"/>
  <line x1="450" y1="330" x2="500" y2="345" stroke="#666" stroke-width="2" marker-end="url(#arrowhead)"/>

  <!-- Arrowhead Marker Definition -->
  <defs>
    <marker id="arrowhead" markerWidth="10" markerHeight="7"
            refX="9" refY="3.5" orient="auto">
      <polygon points="0 0, 10 3.5, 0 7" fill="currentColor"/>
    </marker>
  </defs>
</svg>