<svg width="800" height="500" xmlns="http://www.w3.org/2000/svg">
  <!-- Title -->
  <text x="400" y="30" text-anchor="middle" font-size="20" font-weight="bold" fill="#007cba">Nav2 Humanoid Navigation Pipeline</text>

  <!-- Environment Map -->
  <g transform="translate(50, 80)">
    <rect x="0" y="0" width="180" height="80" fill="#e3f2fd" stroke="#1976d2" stroke-width="2" rx="5" ry="5"/>
    <text x="90" y="25" text-anchor="middle" font-size="12" font-weight="bold" fill="#1976d2">Environment Map</text>
    <text x="90" y="40" text-anchor="middle" font-size="11" fill="#333">Humanoid-specific</text>
    <text x="90" y="55" text-anchor="middle" font-size="10" fill="#333">resolution, inflation</text>
    <text x="90" y="70" text-anchor="middle" font-size="10" fill="#333">terrain constraints</text>
  </g>

  <!-- Humanoid Robot -->
  <g transform="translate(50, 200)">
    <rect x="0" y="0" width="180" height="100" fill="#c8e6c9" stroke="#388e3c" stroke-width="2" rx="5" ry="5"/>
    <text x="90" y="25" text-anchor="middle" font-size="12" font-weight="bold" fill="#388e3c">Humanoid Robot</text>

    <!-- Robot Body -->
    <g transform="translate(90, 50)">
      <!-- Body -->
      <rect x="-25" y="0" width="50" height="40" fill="#a5d6a7" stroke="#388e3c" stroke-width="2" rx="3" ry="3"/>
      <!-- Head -->
      <circle cx="0" cy="-15" r="10" fill="#a5d6a7" stroke="#388e3c" stroke-width="2"/>
      <!-- Arms -->
      <line x1="-25" y1="15" x2="-40" y2="15" stroke="#388e3c" stroke-width="3"/>
      <line x1="25" y1="15" x2="40" y2="15" stroke="#388e3c" stroke-width="3"/>
      <!-- Legs -->
      <line x1="-10" y1="40" x2="-15" y2="70" stroke="#388e3c" stroke-width="3"/>
      <line x1="10" y1="40" x2="15" y2="70" stroke="#388e3c" stroke-width="3"/>
    </g>
  </g>

  <!-- Navigation Goal -->
  <g transform="translate(50, 340)">
    <rect x="0" y="0" width="180" height="60" fill="#fff3e0" stroke="#f57c00" stroke-width="2" rx="5" ry="5"/>
    <text x="90" y="20" text-anchor="middle" font-size="12" font-weight="bold" fill="#f57c00">Navigation Goal</text>
    <text x="90" y="35" text-anchor="middle" font-size="11" fill="#333">Destination</text>
    <text x="90" y="50" text-anchor="middle" font-size="10" fill="#333">Waypoints</text>
  </g>

  <!-- Nav2 Global Planner -->
  <g transform="translate(280, 80)">
    <rect x="0" y="0" width="180" height="50" fill="#f3e5f5" stroke="#7b1fa2" stroke-width="2" rx="5" ry="5"/>
    <text x="90" y="20" text-anchor="middle" font-size="12" font-weight="bold" fill="#7b1fa2">Global Planner</text>
    <text x="90" y="35" text-anchor="middle" font-size="10" fill="#333">Humanoid-aware path</text>
  </g>

  <!-- Nav2 Local Planner -->
  <g transform="translate(280, 160)">
    <rect x="0" y="0" width="180" height="50" fill="#f3e5f5" stroke="#7b1fa2" stroke-width="2" rx="5" ry="5"/>
    <text x="90" y="20" text-anchor="middle" font-size="12" font-weight="bold" fill="#7b1fa2">Local Planner</text>
    <text x="90" y="35" text-anchor="middle" font-size="10" fill="#333">Bipedal trajectory</text>
  </g>

  <!-- Nav2 Controller -->
  <g transform="translate(280, 240)">
    <rect x="0" y="0" width="180" height="50" fill="#f3e5f5" stroke="#7b1fa2" stroke-width="2" rx="5" ry="5"/>
    <text x="90" y="20" text-anchor="middle" font-size="12" font-weight="bold" fill="#7b1fa2">Controller</text>
    <text x="90" y="35" text-anchor="middle" font-size="10" fill="#333">Humanoid locomotion</text>
  </g>

  <!-- Nav2 Recovery -->
  <g transform="translate(280, 320)">
    <rect x="0" y="0" width="180" height="50" fill="#f3e5f5" stroke="#7b1fa2" stroke-width="2" rx="5" ry="5"/>
    <text x="90" y="20" text-anchor="middle" font-size="12" font-weight="bold" fill="#7b1fa2">Recovery</text>
    <text x="90" y="35" text-anchor="middle" font-size="10" fill="#333">Stability behaviors</text>
  </g>

  <!-- Humanoid Path -->
  <g transform="translate(520, 80)">
    <rect x="0" y="0" width="180" height="50" fill="#e8f5e8" stroke="#388e3c" stroke-width="2" rx="5" ry="5"/>
    <text x="90" y="20" text-anchor="middle" font-size="12" font-weight="bold" fill="#388e3c">Humanoid Path</text>
    <text x="90" y="35" text-anchor="middle" font-size="10" fill="#333">Bipedal constraints</text>
  </g>

  <!-- Humanoid Trajectory -->
  <g transform="translate(520, 160)">
    <rect x="0" y="0" width="180" height="50" fill="#e8f5e8" stroke="#388e3c" stroke-width="2" rx="5" ry="5"/>
    <text x="90" y="20" text-anchor="middle" font-size="12" font-weight="bold" fill="#388e3c">Humanoid Trajectory</text>
    <text x="90" y="35" text-anchor="middle" font-size="10" fill="#333">Gait patterns</text>
  </g>

  <!-- Locomotion Control -->
  <g transform="translate(520, 240)">
    <rect x="0" y="0" width="180" height="50" fill="#e8f5e8" stroke="#388e3c" stroke-width="2" rx="5" ry="5"/>
    <text x="90" y="20" text-anchor="middle" font-size="12" font-weight="bold" fill="#388e3c">Locomotion Control</text>
    <text x="90" y="35" text-anchor="middle" font-size="10" fill="#333">Balance & stability</text>
  </g>

  <!-- Navigation Success -->
  <g transform="translate(520, 320)">
    <rect x="0" y="0" width="180" height="50" fill="#e8f5e8" stroke="#388e3c" stroke-width="2" rx="5" ry="5"/>
    <text x="90" y="20" text-anchor="middle" font-size="12" font-weight="bold" fill="#388e3c">Navigation Success</text>
    <text x="90" y="35" text-anchor="middle" font-size="10" fill="#333">Goal reached</text>
  </g>

  <!-- Data Flow Arrows -->
  <line x1="230" y1="120" x2="280" y2="105" stroke="#666" stroke-width="2" marker-end="url(#arrowhead)"/>
  <line x1="230" y1="250" x2="280" y2="185" stroke="#666" stroke-width="2" marker-end="url(#arrowhead)"/>
  <line x1="230" y1="370" x2="280" y2="345" stroke="#666" stroke-width="2" marker-end="url(#arrowhead)"/>

  <line x1="460" y1="105" x2="520" y2="105" stroke="#666" stroke-width="2" marker-end="url(#arrowhead)"/>
  <line x1="460" y1="185" x2="520" y2="185" stroke="#666" stroke-width="2" marker-end="url(#arrowhead)"/>
  <line x1="460" y1="265" x2="520" y2="265" stroke="#666" stroke-width="2" marker-end="url(#arrowhead)"/>
  <line x1="460" y1="345" x2="520" y2="345" stroke="#666" stroke-width="2" marker-end="url(#arrowhead)"/>

  <!-- Vertical Connections -->
  <line x1="610" y1="130" x2="610" y2="160" stroke="#666" stroke-width="2" marker-end="url(#arrowhead)"/>
  <line x1="610" y1="210" x2="610" y2="240" stroke="#666" stroke-width="2" marker-end="url(#arrowhead)"/>
  <line x1="610" y1="290" x2="610" y2="320" stroke="#666" stroke-width="2" marker-end="url(#arrowhead)"/>

  <!-- Arrowhead Marker Definition -->
  <defs>
    <marker id="arrowhead" markerWidth="10" markerHeight="7"
            refX="9" refY="3.5" orient="auto">
      <polygon points="0 0, 10 3.5, 0 7" fill="currentColor"/>
    </marker>
  </defs>
</svg>