<svg width="800" height="500" xmlns="http://www.w3.org/2000/svg">
  <!-- Title -->
  <text x="400" y="30" text-anchor="middle" font-size="20" font-weight="bold" fill="#007cba">Sensor Simulation Pipeline Architecture</text>

  <!-- Digital Twin Environment -->
  <g transform="translate(50, 80)">
    <rect x="0" y="0" width="200" height="120" fill="#e3f2fd" stroke="#1976d2" stroke-width="2" rx="5" ry="5"/>
    <text x="100" y="25" text-anchor="middle" font-size="12" font-weight="bold" fill="#1976d2">Digital Twin</text>
    <text x="100" y="40" text-anchor="middle" font-size="11" fill="#333">Environment</text>

    <!-- Robot in environment -->
    <g transform="translate(100, 60)">
      <!-- Robot Body -->
      <rect x="-25" y="0" width="50" height="40" fill="#c8e6c9" stroke="#388e3c" stroke-width="2" rx="3" ry="3"/>
      <!-- Head -->
      <circle cx="0" cy="-15" r="10" fill="#c8e6c9" stroke="#388e3c" stroke-width="2"/>
      <!-- Arms -->
      <line x1="-25" y1="15" x2="-40" y2="15" stroke="#388e3c" stroke-width="3"/>
      <line x1="25" y1="15" x2="40" y2="15" stroke="#388e3c" stroke-width="3"/>
    </g>
  </g>

  <!-- LiDAR Sensor -->
  <g transform="translate(300, 80)">
    <rect x="0" y="0" width="150" height="60" fill="#fff3e0" stroke="#f57c00" stroke-width="2" rx="5" ry="5"/>
    <text x="75" y="20" text-anchor="middle" font-size="12" font-weight="bold" fill="#f57c00">LiDAR Sensor</text>
    <text x="75" y="35" text-anchor="middle" font-size="10" fill="#333">Point Cloud Generation</text>
    <text x="75" y="50" text-anchor="middle" font-size="9" fill="#333">HDL-64E, VLP-16, etc.</text>
  </g>

  <!-- Depth Camera -->
  <g transform="translate(300, 160)">
    <rect x="0" y="0" width="150" height="60" fill="#fff3e0" stroke="#f57c00" stroke-width="2" rx="5" ry="5"/>
    <text x="75" y="20" text-anchor="middle" font-size="12" font-weight="bold" fill="#f57c00">Depth Camera</text>
    <text x="75" y="35" text-anchor="middle" font-size="10" fill="#333">Depth Map Creation</text>
    <text x="75" y="50" text-anchor="middle" font-size="9" fill="#333">RGB-D, Stereo, etc.</text>
  </g>

  <!-- IMU Sensor -->
  <g transform="translate(300, 240)">
    <rect x="0" y="0" width="150" height="60" fill="#fff3e0" stroke="#f57c00" stroke-width="2" rx="5" ry="5"/>
    <text x="75" y="20" text-anchor="middle" font-size="12" font-weight="bold" fill="#f57c00">IMU Sensor</text>
    <text x="75" y="35" text-anchor="middle" font-size="10" fill="#333">Motion Data</text>
    <text x="75" y="50" text-anchor="middle" font-size="9" fill="#333">Accelerometer, Gyro</text>
  </g>

  <!-- Raw Sensor Data -->
  <g transform="translate(500, 80)">
    <rect x="0" y="0" width="180" height="50" fill="#f3e5f5" stroke="#7b1fa2" stroke-width="2" rx="5" ry="5"/>
    <text x="90" y="20" text-anchor="middle" font-size="12" font-weight="bold" fill="#7b1fa2">Raw Sensor Data</text>
    <text x="90" y="35" text-anchor="middle" font-size="10" fill="#333">Point Clouds, Depth Maps, IMU</text>
  </g>

  <!-- Preprocessing -->
  <g transform="translate(500, 160)">
    <rect x="0" y="0" width="180" height="50" fill="#f3e5f5" stroke="#7b1fa2" stroke-width="2" rx="5" ry="5"/>
    <text x="90" y="20" text-anchor="middle" font-size="12" font-weight="bold" fill="#7b1fa2">Preprocessing</text>
    <text x="90" y="35" text-anchor="middle" font-size="10" fill="#333">Noise Reduction, Calibration</text>
  </g>

  <!-- Feature Extraction -->
  <g transform="translate(500, 240)">
    <rect x="0" y="0" width="180" height="50" fill="#f3e5f5" stroke="#7b1fa2" stroke-width="2" rx="5" ry="5"/>
    <text x="90" y="20" text-anchor="middle" font-size="12" font-weight="bold" fill="#7b1fa2">Feature Extraction</text>
    <text x="90" y="35" text-anchor="middle" font-size="10" fill="#333">Key Points, Descriptors</text>
  </g>

  <!-- Output Formats -->
  <g transform="translate(500, 320)">
    <rect x="0" y="0" width="180" height="50" fill="#f3e5f5" stroke="#7b1fa2" stroke-width="2" rx="5" ry="5"/>
    <text x="90" y="20" text-anchor="middle" font-size="12" font-weight="bold" fill="#7b1fa2">Output Formats</text>
    <text x="90" y="35" text-anchor="middle" font-size="10" fill="#333">ROS, PCL, Standard Formats</text>
  </g>

  <!-- Perception Tasks -->
  <g transform="translate(50, 300)">
    <rect x="0" y="0" width="160" height="100" fill="#e8f5e8" stroke="#388e3c" stroke-width="2" rx="5" ry="5"/>
    <text x="80" y="20" text-anchor="middle" font-size="12" font-weight="bold" fill="#388e3c">Perception Tasks</text>
    <text x="10" y="40" font-size="10" fill="#333">• SLAM</text>
    <text x="10" y="55" font-size="10" fill="#333">• Object Detection</text>
    <text x="10" y="70" font-size="10" fill="#333">• Path Planning</text>
    <text x="10" y="85" font-size="10" fill="#333">• Motion Tracking</text>
  </g>

  <!-- Arrows showing data flow -->
  <line x1="250" y1="110" x2="300" y2="110" stroke="#666" stroke-width="2" marker-end="url(#arrowhead)"/>
  <line x1="250" y1="190" x2="300" y2="190" stroke="#666" stroke-width="2" marker-end="url(#arrowhead)"/>
  <line x1="250" y1="270" x2="300" y2="270" stroke="#666" stroke-width="2" marker-end="url(#arrowhead)"/>

  <line x1="450" y1="110" x2="500" y2="105" stroke="#666" stroke-width="2" marker-end="url(#arrowhead)"/>
  <line x1="450" y1="190" x2="500" y2="185" stroke="#666" stroke-width="2" marker-end="url(#arrowhead)"/>
  <line x1="450" y1="270" x2="500" y2="265" stroke="#666" stroke-width="2" marker-end="url(#arrowhead)"/>

  <line x1="680" y1="105" x2="680" y2="160" stroke="#666" stroke-width="2" marker-end="url(#arrowhead)"/>
  <line x1="680" y1="185" x2="680" y2="240" stroke="#666" stroke-width="2" marker-end="url(#arrowhead)"/>
  <line x1="680" y1="265" x2="680" y2="320" stroke="#666" stroke-width="2" marker-end="url(#arrowhead)"/>

  <line x1="210" y1="350" x2="500" y2="345" stroke="#666" stroke-width="2" marker-end="url(#arrowhead)"/>

  <!-- Arrowhead Marker Definition -->
  <defs>
    <marker id="arrowhead" markerWidth="10" markerHeight="7"
            refX="9" refY="3.5" orient="auto">
      <polygon points="0 0, 10 3.5, 0 7" fill="currentColor"/>
    </marker>
  </defs>
</svg>