<svg width="800" height="500" xmlns="http://www.w3.org/2000/svg">
  <!-- Title -->
  <text x="400" y="30" text-anchor="middle" font-size="20" font-weight="bold" fill="#007cba">Unity Rendering Architecture for Humanoid Robots</text>

  <!-- Unity Engine Container -->
  <rect x="50" y="60" width="700" height="400" fill="none" stroke="#007cba" stroke-width="2" rx="10" ry="10"/>
  <text x="60" y="80" font-size="14" font-weight="bold" fill="#007cba">Unity Engine</text>

  <!-- Camera System -->
  <rect x="100" y="100" width="180" height="70" fill="#e3f2fd" stroke="#1976d2" stroke-width="2" rx="5" ry="5"/>
  <text x="190" y="125" text-anchor="middle" font-size="14" font-weight="bold" fill="#1976d2">Camera System</text>
  <text x="190" y="145" text-anchor="middle" font-size="11" fill="#333">Orbit, Pan, Zoom controls</text>

  <!-- Lighting System -->
  <rect x="320" y="100" width="180" height="70" fill="#e3f2fd" stroke="#1976d2" stroke-width="2" rx="5" ry="5"/>
  <text x="410" y="125" text-anchor="middle" font-size="14" font-weight="bold" fill="#1976d2">Lighting System</text>
  <text x="410" y="145" text-anchor="middle" font-size="11" fill="#333">Directional, Point, Ambient</text>

  <!-- Humanoid Robot Model -->
  <g transform="translate(550, 120)">
    <!-- Robot Body -->
    <rect x="-30" y="0" width="60" height="80" fill="#c8e6c9" stroke="#388e3c" stroke-width="2" rx="5" ry="5"/>
    <text x="0" y="30" text-anchor="middle" font-size="12" font-weight="bold" fill="#333">Humanoid</text>
    <text x="0" y="45" text-anchor="middle" font-size="10" fill="#333">Robot Model</text>

    <!-- Head -->
    <circle cx="0" cy="-20" r="15" fill="#c8e6c9" stroke="#388e3c" stroke-width="2"/>

    <!-- Arms -->
    <line x1="-30" y1="20" x2="-60" y2="20" stroke="#388e3c" stroke-width="4"/>
    <line x1="30" y1="20" x2="60" y2="20" stroke="#388e3c" stroke-width="4"/>

    <!-- Legs -->
    <line x1="-15" y1="80" x2="-25" y2="140" stroke="#388e3c" stroke-width="4"/>
    <line x1="15" y1="80" x2="25" y2="140" stroke="#388e3c" stroke-width="4"/>
  </g>

  <!-- Rendering Pipeline -->
  <g transform="translate(100, 220)">
    <rect x="0" y="0" width="150" height="50" fill="#fff3e0" stroke="#f57c00" stroke-width="2" rx="5" ry="5"/>
    <text x="75" y="20" text-anchor="middle" font-size="12" font-weight="bold" fill="#f57c00">Geometry</text>
    <text x="75" y="35" text-anchor="middle" font-size="10" fill="#333">Processing</text>
  </g>

  <g transform="translate(325, 220)">
    <rect x="0" y="0" width="150" height="50" fill="#fff3e0" stroke="#f57c00" stroke-width="2" rx="5" ry="5"/>
    <text x="75" y="20" text-anchor="middle" font-size="12" font-weight="bold" fill="#f57c00">Shading</text>
    <text x="75" y="35" text-anchor="middle" font-size="10" fill="#333">Calculation</text>
  </g>

  <g transform="translate(550, 220)">
    <rect x="0" y="0" width="150" height="50" fill="#fff3e0" stroke="#f57c00" stroke-width="2" rx="5" ry="5"/>
    <text x="75" y="20" text-anchor="middle" font-size="12" font-weight="bold" fill="#f57c00">Post-Processing</text>
    <text x="75" y="35" text-anchor="middle" font-size="10" fill="#333">Effects</text>
  </g>

  <!-- Human-Robot Interaction Elements -->
  <g transform="translate(150, 320)">
    <rect x="0" y="0" width="200" height="100" fill="#f3e5f5" stroke="#7b1fa2" stroke-width="2" rx="5" ry="5"/>
    <text x="100" y="20" text-anchor="middle" font-size="12" font-weight="bold" fill="#7b1fa2">Interaction Elements</text>
    <text x="10" y="45" font-size="10" fill="#333">• Camera Controls</text>
    <text x="10" y="60" font-size="10" fill="#333">• Animation Triggers</text>
    <text x="10" y="75" font-size="10" fill="#333">• Visual Feedback</text>
    <text x="10" y="90" font-size="10" fill="#333">• Sensor Visualization</text>
  </g>

  <!-- Output Display -->
  <g transform="translate(450, 340)">
    <rect x="0" y="0" width="180" height="60" fill="#e8f5e8" stroke="#388e3c" stroke-width="2" rx="5" ry="5"/>
    <text x="90" y="25" text-anchor="middle" font-size="12" font-weight="bold" fill="#388e3c">High-Fidelity</text>
    <text x="90" y="40" text-anchor="middle" font-size="12" font-weight="bold" fill="#388e3c">Render Output</text>
  </g>

  <!-- Arrows showing data flow -->
  <line x1="280" y1="135" x2="320" y2="135" stroke="#666" stroke-width="2" marker-end="url(#arrowhead)"/>
  <line x1="500" y1="135" x2="520" y2="135" stroke="#666" stroke-width="2" marker-end="url(#arrowhead)"/>
  <line x1="535" y1="150" x2="220" y2="220" stroke="#666" stroke-width="2" marker-end="url(#arrowhead)"/>

  <line x1="175" y1="170" x2="175" y2="220" stroke="#666" stroke-width="2" marker-end="url(#arrowhead)"/>
  <line x1="400" y1="170" x2="400" y2="220" stroke="#666" stroke-width="2" marker-end="url(#arrowhead)"/>

  <line x1="175" y1="270" x2="175" y2="320" stroke="#666" stroke-width="2" marker-end="url(#arrowhead)"/>
  <line x1="400" y1="270" x2="540" y2="340" stroke="#666" stroke-width="2" marker-end="url(#arrowhead)"/>

  <!-- Arrowhead Marker Definition -->
  <defs>
    <marker id="arrowhead" markerWidth="10" markerHeight="7"
            refX="9" refY="3.5" orient="auto">
      <polygon points="0 0, 10 3.5, 0 7" fill="currentColor"/>
    </marker>
  </defs>
</svg>